<mxfile host="app.diagrams.net" agent="Mozilla/5.0 (Macintosh; Intel Mac OS X 10_15_7) AppleWebKit/537.36 (KHTML, like Gecko) Chrome/130.0.0.0 Safari/537.36" version="24.8.4" pages="2">
  <diagram name="第 1 页" id="teSIABedf8bf0ajUc_VX">
    <mxGraphModel dx="1633" dy="877" grid="1" gridSize="10" guides="1" tooltips="1" connect="1" arrows="1" fold="1" page="1" pageScale="1" pageWidth="827" pageHeight="1169" math="0" shadow="0">
      <root>
        <mxCell id="0" />
        <mxCell id="1" parent="0" />
        <mxCell id="sEB5FwpAec_Wfmmrv-Z2-6" value="" style="rounded=1;whiteSpace=wrap;html=1;sketch=1;hachureGap=4;jiggle=2;curveFitting=1;fontFamily=手札体-简;fontSize=14;labelBackgroundColor=default;fillColor=#dae8fc;opacity=20;strokeColor=#6c8ebf;" vertex="1" parent="1">
          <mxGeometry x="270" y="100" width="570" height="540" as="geometry" />
        </mxCell>
        <mxCell id="sEB5FwpAec_Wfmmrv-Z2-35" value="" style="rounded=1;whiteSpace=wrap;html=1;sketch=1;hachureGap=4;jiggle=2;curveFitting=1;fontFamily=手札体-简;fontSize=14;labelBackgroundColor=default;fillColor=#d5e8d4;strokeColor=#82b366;opacity=30;" vertex="1" parent="1">
          <mxGeometry x="320" y="360" width="180" height="250" as="geometry" />
        </mxCell>
        <mxCell id="sEB5FwpAec_Wfmmrv-Z2-27" style="edgeStyle=orthogonalEdgeStyle;shape=connector;curved=1;rounded=0;sketch=1;hachureGap=4;jiggle=2;curveFitting=1;orthogonalLoop=1;jettySize=auto;html=1;exitX=1;exitY=0.5;exitDx=0;exitDy=0;entryX=0;entryY=0.5;entryDx=0;entryDy=0;strokeColor=default;align=center;verticalAlign=middle;fontFamily=手札体-简;fontSize=14;fontColor=default;labelBackgroundColor=default;endArrow=classic;" edge="1" parent="1" source="sEB5FwpAec_Wfmmrv-Z2-1" target="sEB5FwpAec_Wfmmrv-Z2-2">
          <mxGeometry relative="1" as="geometry" />
        </mxCell>
        <mxCell id="sEB5FwpAec_Wfmmrv-Z2-1" value="原流程" style="rounded=1;whiteSpace=wrap;html=1;sketch=1;hachureGap=4;jiggle=2;curveFitting=1;fontFamily=手札体-简;fontSize=14;fillColor=#d5e8d4;strokeColor=#82b366;" vertex="1" parent="1">
          <mxGeometry x="90" y="150" width="120" height="60" as="geometry" />
        </mxCell>
        <mxCell id="sEB5FwpAec_Wfmmrv-Z2-5" value="" style="edgeStyle=orthogonalEdgeStyle;rounded=0;sketch=1;hachureGap=4;jiggle=2;curveFitting=1;orthogonalLoop=1;jettySize=auto;html=1;fontFamily=手札体-简;curved=1;exitX=1;exitY=0.5;exitDx=0;exitDy=0;fontSize=14;" edge="1" parent="1" source="sEB5FwpAec_Wfmmrv-Z2-11" target="sEB5FwpAec_Wfmmrv-Z2-4">
          <mxGeometry relative="1" as="geometry">
            <mxPoint x="909.9999999999999" y="141.29999999999995" as="sourcePoint" />
          </mxGeometry>
        </mxCell>
        <mxCell id="sEB5FwpAec_Wfmmrv-Z2-12" style="edgeStyle=orthogonalEdgeStyle;shape=connector;curved=1;rounded=0;sketch=1;hachureGap=4;jiggle=2;curveFitting=1;orthogonalLoop=1;jettySize=auto;html=1;exitX=1;exitY=0.5;exitDx=0;exitDy=0;strokeColor=default;align=center;verticalAlign=middle;fontFamily=手札体-简;fontSize=14;fontColor=default;labelBackgroundColor=default;endArrow=classic;" edge="1" parent="1" source="sEB5FwpAec_Wfmmrv-Z2-2" target="sEB5FwpAec_Wfmmrv-Z2-11">
          <mxGeometry relative="1" as="geometry" />
        </mxCell>
        <mxCell id="sEB5FwpAec_Wfmmrv-Z2-19" style="edgeStyle=orthogonalEdgeStyle;shape=connector;curved=1;rounded=0;sketch=1;hachureGap=4;jiggle=2;curveFitting=1;orthogonalLoop=1;jettySize=auto;html=1;exitX=1;exitY=0.5;exitDx=0;exitDy=0;strokeColor=#6c8ebf;align=center;verticalAlign=middle;fontFamily=手札体-简;fontSize=14;fontColor=default;labelBackgroundColor=default;endArrow=classic;entryX=0;entryY=0;entryDx=0;entryDy=0;fillColor=#dae8fc;" edge="1" parent="1" source="sEB5FwpAec_Wfmmrv-Z2-2" target="sEB5FwpAec_Wfmmrv-Z2-13">
          <mxGeometry relative="1" as="geometry" />
        </mxCell>
        <mxCell id="sEB5FwpAec_Wfmmrv-Z2-20" style="edgeStyle=orthogonalEdgeStyle;shape=connector;curved=1;rounded=0;sketch=1;hachureGap=4;jiggle=2;curveFitting=1;orthogonalLoop=1;jettySize=auto;html=1;exitX=1;exitY=0.5;exitDx=0;exitDy=0;entryX=0;entryY=0.25;entryDx=0;entryDy=0;strokeColor=#d79b00;align=center;verticalAlign=middle;fontFamily=手札体-简;fontSize=14;fontColor=default;labelBackgroundColor=default;endArrow=classic;fillColor=#ffe6cc;" edge="1" parent="1" source="sEB5FwpAec_Wfmmrv-Z2-2" target="sEB5FwpAec_Wfmmrv-Z2-14">
          <mxGeometry relative="1" as="geometry" />
        </mxCell>
        <mxCell id="sEB5FwpAec_Wfmmrv-Z2-2" value="PDP index.tsx" style="rounded=1;whiteSpace=wrap;html=1;sketch=1;hachureGap=4;jiggle=2;curveFitting=1;fontFamily=手札体-简;fontSize=14;fillColor=#d5e8d4;strokeColor=#82b366;" vertex="1" parent="1">
          <mxGeometry x="350" y="150" width="120" height="60" as="geometry" />
        </mxCell>
        <mxCell id="sEB5FwpAec_Wfmmrv-Z2-25" value="" style="edgeStyle=orthogonalEdgeStyle;shape=connector;curved=1;rounded=0;sketch=1;hachureGap=4;jiggle=2;curveFitting=1;orthogonalLoop=1;jettySize=auto;html=1;strokeColor=default;align=center;verticalAlign=middle;fontFamily=手札体-简;fontSize=14;fontColor=default;labelBackgroundColor=default;endArrow=classic;" edge="1" parent="1" source="sEB5FwpAec_Wfmmrv-Z2-4" target="sEB5FwpAec_Wfmmrv-Z2-24">
          <mxGeometry relative="1" as="geometry" />
        </mxCell>
        <mxCell id="sEB5FwpAec_Wfmmrv-Z2-4" value="原流程" style="rounded=1;whiteSpace=wrap;html=1;sketch=1;hachureGap=4;jiggle=2;curveFitting=1;fontFamily=手札体-简;fontSize=14;fillColor=#d5e8d4;strokeColor=#82b366;" vertex="1" parent="1">
          <mxGeometry x="880" y="150" width="120" height="60" as="geometry" />
        </mxCell>
        <mxCell id="sEB5FwpAec_Wfmmrv-Z2-11" value="原 PDP Component" style="rounded=1;whiteSpace=wrap;html=1;sketch=1;hachureGap=4;jiggle=2;curveFitting=1;fontFamily=手札体-简;fontSize=14;labelBackgroundColor=none;fillColor=#d5e8d4;strokeColor=#82b366;" vertex="1" parent="1">
          <mxGeometry x="690" y="150" width="120" height="60" as="geometry" />
        </mxCell>
        <mxCell id="sEB5FwpAec_Wfmmrv-Z2-23" style="edgeStyle=orthogonalEdgeStyle;shape=connector;curved=1;rounded=0;sketch=1;hachureGap=4;jiggle=2;curveFitting=1;orthogonalLoop=1;jettySize=auto;html=1;exitX=1;exitY=0.5;exitDx=0;exitDy=0;entryX=0;entryY=0.5;entryDx=0;entryDy=0;strokeColor=default;align=center;verticalAlign=middle;fontFamily=手札体-简;fontSize=14;fontColor=default;labelBackgroundColor=default;endArrow=classic;" edge="1" parent="1" source="sEB5FwpAec_Wfmmrv-Z2-13" target="sEB5FwpAec_Wfmmrv-Z2-21">
          <mxGeometry relative="1" as="geometry" />
        </mxCell>
        <mxCell id="sEB5FwpAec_Wfmmrv-Z2-13" value="Main Page Add Component" style="rounded=1;whiteSpace=wrap;html=1;sketch=1;hachureGap=4;jiggle=2;curveFitting=1;fontFamily=手札体-简;fontSize=14;labelBackgroundColor=none;fillColor=#dae8fc;strokeColor=#6c8ebf;" vertex="1" parent="1">
          <mxGeometry x="690" y="300" width="120" height="60" as="geometry" />
        </mxCell>
        <mxCell id="sEB5FwpAec_Wfmmrv-Z2-26" style="edgeStyle=orthogonalEdgeStyle;shape=connector;curved=1;rounded=0;sketch=1;hachureGap=4;jiggle=2;curveFitting=1;orthogonalLoop=1;jettySize=auto;html=1;exitX=1;exitY=0.5;exitDx=0;exitDy=0;strokeColor=default;align=center;verticalAlign=middle;fontFamily=手札体-简;fontSize=14;fontColor=default;labelBackgroundColor=default;endArrow=classic;" edge="1" parent="1" source="sEB5FwpAec_Wfmmrv-Z2-14" target="sEB5FwpAec_Wfmmrv-Z2-22">
          <mxGeometry relative="1" as="geometry" />
        </mxCell>
        <mxCell id="sEB5FwpAec_Wfmmrv-Z2-14" value="Reminder Add Component" style="rounded=1;whiteSpace=wrap;html=1;sketch=1;hachureGap=4;jiggle=2;curveFitting=1;fontFamily=手札体-简;fontSize=14;labelBackgroundColor=none;fillColor=#ffe6cc;strokeColor=#d79b00;" vertex="1" parent="1">
          <mxGeometry x="690" y="420" width="120" height="60" as="geometry" />
        </mxCell>
        <mxCell id="sEB5FwpAec_Wfmmrv-Z2-29" style="edgeStyle=orthogonalEdgeStyle;shape=connector;curved=1;rounded=0;sketch=1;hachureGap=4;jiggle=2;curveFitting=1;orthogonalLoop=1;jettySize=auto;html=1;exitX=1;exitY=0.5;exitDx=0;exitDy=0;strokeColor=#d79b00;align=center;verticalAlign=middle;fontFamily=手札体-简;fontSize=14;fontColor=default;labelBackgroundColor=default;endArrow=classic;entryX=0;entryY=0.5;entryDx=0;entryDy=0;fillColor=#ffe6cc;" edge="1" parent="1" source="sEB5FwpAec_Wfmmrv-Z2-15" target="sEB5FwpAec_Wfmmrv-Z2-2">
          <mxGeometry relative="1" as="geometry">
            <mxPoint x="350" y="255" as="targetPoint" />
          </mxGeometry>
        </mxCell>
        <mxCell id="sEB5FwpAec_Wfmmrv-Z2-15" value="Reminder Add" style="rounded=1;whiteSpace=wrap;html=1;sketch=1;hachureGap=4;jiggle=2;curveFitting=1;fontFamily=手札体-简;fontSize=14;fillColor=#ffe6cc;strokeColor=#d79b00;" vertex="1" parent="1">
          <mxGeometry x="90" y="420" width="120" height="60" as="geometry" />
        </mxCell>
        <mxCell id="sEB5FwpAec_Wfmmrv-Z2-28" style="edgeStyle=orthogonalEdgeStyle;shape=connector;curved=1;rounded=0;sketch=1;hachureGap=4;jiggle=2;curveFitting=1;orthogonalLoop=1;jettySize=auto;html=1;exitX=1;exitY=0.5;exitDx=0;exitDy=0;entryX=0;entryY=0.5;entryDx=0;entryDy=0;strokeColor=#6c8ebf;align=center;verticalAlign=middle;fontFamily=手札体-简;fontSize=14;fontColor=default;labelBackgroundColor=default;endArrow=classic;fillColor=#dae8fc;" edge="1" parent="1" source="sEB5FwpAec_Wfmmrv-Z2-16" target="sEB5FwpAec_Wfmmrv-Z2-2">
          <mxGeometry relative="1" as="geometry" />
        </mxCell>
        <mxCell id="sEB5FwpAec_Wfmmrv-Z2-16" value="Main Page Add" style="rounded=1;whiteSpace=wrap;html=1;sketch=1;hachureGap=4;jiggle=2;curveFitting=1;fontFamily=手札体-简;fontSize=14;fillColor=#dae8fc;strokeColor=#6c8ebf;" vertex="1" parent="1">
          <mxGeometry x="90" y="300" width="120" height="60" as="geometry" />
        </mxCell>
        <mxCell id="sEB5FwpAec_Wfmmrv-Z2-21" value="Main Page" style="rounded=1;whiteSpace=wrap;html=1;sketch=1;hachureGap=4;jiggle=2;curveFitting=1;fontFamily=手札体-简;fontSize=14;fillColor=#dae8fc;strokeColor=#6c8ebf;" vertex="1" parent="1">
          <mxGeometry x="880" y="300" width="120" height="60" as="geometry" />
        </mxCell>
        <mxCell id="sEB5FwpAec_Wfmmrv-Z2-22" value="Reminder List" style="rounded=1;whiteSpace=wrap;html=1;sketch=1;hachureGap=4;jiggle=2;curveFitting=1;fontFamily=手札体-简;fontSize=14;fillColor=#ffe6cc;strokeColor=#d79b00;" vertex="1" parent="1">
          <mxGeometry x="880" y="420" width="120" height="60" as="geometry" />
        </mxCell>
        <mxCell id="sEB5FwpAec_Wfmmrv-Z2-24" value="下单" style="rounded=1;whiteSpace=wrap;html=1;sketch=1;hachureGap=4;jiggle=2;curveFitting=1;fontFamily=手札体-简;fontSize=14;fillColor=#d5e8d4;strokeColor=#82b366;" vertex="1" parent="1">
          <mxGeometry x="1040" y="150" width="120" height="60" as="geometry" />
        </mxCell>
        <mxCell id="sEB5FwpAec_Wfmmrv-Z2-41" style="edgeStyle=orthogonalEdgeStyle;shape=connector;curved=1;rounded=0;sketch=1;hachureGap=4;jiggle=2;curveFitting=1;orthogonalLoop=1;jettySize=auto;html=1;exitX=1;exitY=0.5;exitDx=0;exitDy=0;entryX=0;entryY=0.75;entryDx=0;entryDy=0;strokeColor=#6c8ebf;align=center;verticalAlign=middle;fontFamily=Architects Daughter;fontSource=https%3A%2F%2Ffonts.googleapis.com%2Fcss%3Ffamily%3DArchitects%2BDaughter;fontSize=11;fontColor=default;labelBackgroundColor=default;endArrow=classic;fillColor=#dae8fc;" edge="1" parent="1" source="sEB5FwpAec_Wfmmrv-Z2-30" target="sEB5FwpAec_Wfmmrv-Z2-13">
          <mxGeometry relative="1" as="geometry" />
        </mxCell>
        <mxCell id="sEB5FwpAec_Wfmmrv-Z2-43" style="edgeStyle=orthogonalEdgeStyle;shape=connector;curved=1;rounded=0;sketch=1;hachureGap=4;jiggle=2;curveFitting=1;orthogonalLoop=1;jettySize=auto;html=1;exitX=1;exitY=0.5;exitDx=0;exitDy=0;entryX=0.5;entryY=1;entryDx=0;entryDy=0;strokeColor=#d79b00;align=center;verticalAlign=middle;fontFamily=Architects Daughter;fontSource=https%3A%2F%2Ffonts.googleapis.com%2Fcss%3Ffamily%3DArchitects%2BDaughter;fontSize=11;fontColor=default;labelBackgroundColor=default;endArrow=classic;fillColor=#ffe6cc;" edge="1" parent="1" source="sEB5FwpAec_Wfmmrv-Z2-30" target="sEB5FwpAec_Wfmmrv-Z2-14">
          <mxGeometry relative="1" as="geometry" />
        </mxCell>
        <mxCell id="sEB5FwpAec_Wfmmrv-Z2-30" value="Carrier" style="rounded=1;whiteSpace=wrap;html=1;sketch=1;hachureGap=4;jiggle=2;curveFitting=1;fontFamily=手札体-简;fontSize=14;fillColor=#d5e8d4;strokeColor=#82b366;" vertex="1" parent="1">
          <mxGeometry x="350" y="560" width="120" height="30" as="geometry" />
        </mxCell>
        <mxCell id="sEB5FwpAec_Wfmmrv-Z2-40" style="edgeStyle=orthogonalEdgeStyle;shape=connector;curved=1;rounded=0;sketch=1;hachureGap=4;jiggle=2;curveFitting=1;orthogonalLoop=1;jettySize=auto;html=1;exitX=1;exitY=0.5;exitDx=0;exitDy=0;entryX=0;entryY=0.75;entryDx=0;entryDy=0;strokeColor=#6c8ebf;align=center;verticalAlign=middle;fontFamily=Architects Daughter;fontSource=https%3A%2F%2Ffonts.googleapis.com%2Fcss%3Ffamily%3DArchitects%2BDaughter;fontSize=11;fontColor=default;labelBackgroundColor=default;endArrow=classic;fillColor=#dae8fc;" edge="1" parent="1" source="sEB5FwpAec_Wfmmrv-Z2-31" target="sEB5FwpAec_Wfmmrv-Z2-13">
          <mxGeometry relative="1" as="geometry" />
        </mxCell>
        <mxCell id="sEB5FwpAec_Wfmmrv-Z2-42" style="edgeStyle=orthogonalEdgeStyle;shape=connector;curved=1;rounded=0;sketch=1;hachureGap=4;jiggle=2;curveFitting=1;orthogonalLoop=1;jettySize=auto;html=1;exitX=1;exitY=0.5;exitDx=0;exitDy=0;entryX=0.5;entryY=1;entryDx=0;entryDy=0;strokeColor=#d79b00;align=center;verticalAlign=middle;fontFamily=Architects Daughter;fontSource=https%3A%2F%2Ffonts.googleapis.com%2Fcss%3Ffamily%3DArchitects%2BDaughter;fontSize=11;fontColor=default;labelBackgroundColor=default;endArrow=classic;fillColor=#ffe6cc;" edge="1" parent="1" source="sEB5FwpAec_Wfmmrv-Z2-31" target="sEB5FwpAec_Wfmmrv-Z2-14">
          <mxGeometry relative="1" as="geometry" />
        </mxCell>
        <mxCell id="sEB5FwpAec_Wfmmrv-Z2-31" value="Form" style="rounded=1;whiteSpace=wrap;html=1;sketch=1;hachureGap=4;jiggle=2;curveFitting=1;fontFamily=手札体-简;fontSize=14;fillColor=#d5e8d4;strokeColor=#82b366;" vertex="1" parent="1">
          <mxGeometry x="350" y="520" width="120" height="30" as="geometry" />
        </mxCell>
        <mxCell id="sEB5FwpAec_Wfmmrv-Z2-37" style="edgeStyle=orthogonalEdgeStyle;shape=connector;curved=1;rounded=0;sketch=1;hachureGap=4;jiggle=2;curveFitting=1;orthogonalLoop=1;jettySize=auto;html=1;exitX=1;exitY=0.5;exitDx=0;exitDy=0;entryX=0;entryY=0.75;entryDx=0;entryDy=0;strokeColor=#6c8ebf;align=center;verticalAlign=middle;fontFamily=Architects Daughter;fontSource=https%3A%2F%2Ffonts.googleapis.com%2Fcss%3Ffamily%3DArchitects%2BDaughter;fontSize=11;fontColor=default;labelBackgroundColor=default;endArrow=classic;fillColor=#dae8fc;" edge="1" parent="1" source="sEB5FwpAec_Wfmmrv-Z2-32" target="sEB5FwpAec_Wfmmrv-Z2-13">
          <mxGeometry relative="1" as="geometry" />
        </mxCell>
        <mxCell id="sEB5FwpAec_Wfmmrv-Z2-32" value="Coin" style="rounded=1;whiteSpace=wrap;html=1;sketch=1;hachureGap=4;jiggle=2;curveFitting=1;fontFamily=手札体-简;fontSize=14;fillColor=#d5e8d4;strokeColor=#82b366;" vertex="1" parent="1">
          <mxGeometry x="350" y="400" width="120" height="30" as="geometry" />
        </mxCell>
        <mxCell id="sEB5FwpAec_Wfmmrv-Z2-39" style="edgeStyle=orthogonalEdgeStyle;shape=connector;curved=1;rounded=0;sketch=1;hachureGap=4;jiggle=2;curveFitting=1;orthogonalLoop=1;jettySize=auto;html=1;exitX=1;exitY=0.5;exitDx=0;exitDy=0;entryX=0;entryY=0.75;entryDx=0;entryDy=0;strokeColor=#6c8ebf;align=center;verticalAlign=middle;fontFamily=Architects Daughter;fontSource=https%3A%2F%2Ffonts.googleapis.com%2Fcss%3Ffamily%3DArchitects%2BDaughter;fontSize=11;fontColor=default;labelBackgroundColor=default;endArrow=classic;fillColor=#dae8fc;" edge="1" parent="1" source="sEB5FwpAec_Wfmmrv-Z2-33" target="sEB5FwpAec_Wfmmrv-Z2-13">
          <mxGeometry relative="1" as="geometry" />
        </mxCell>
        <mxCell id="sEB5FwpAec_Wfmmrv-Z2-44" style="edgeStyle=orthogonalEdgeStyle;shape=connector;curved=1;rounded=0;sketch=1;hachureGap=4;jiggle=2;curveFitting=1;orthogonalLoop=1;jettySize=auto;html=1;exitX=1;exitY=0.5;exitDx=0;exitDy=0;entryX=0.5;entryY=1;entryDx=0;entryDy=0;strokeColor=#d79b00;align=center;verticalAlign=middle;fontFamily=Architects Daughter;fontSource=https%3A%2F%2Ffonts.googleapis.com%2Fcss%3Ffamily%3DArchitects%2BDaughter;fontSize=11;fontColor=default;labelBackgroundColor=default;endArrow=classic;fillColor=#ffe6cc;" edge="1" parent="1" source="sEB5FwpAec_Wfmmrv-Z2-33" target="sEB5FwpAec_Wfmmrv-Z2-14">
          <mxGeometry relative="1" as="geometry" />
        </mxCell>
        <mxCell id="sEB5FwpAec_Wfmmrv-Z2-33" value="Reminder" style="rounded=1;whiteSpace=wrap;html=1;sketch=1;hachureGap=4;jiggle=2;curveFitting=1;fontFamily=手札体-简;fontSize=14;fillColor=#d5e8d4;strokeColor=#82b366;" vertex="1" parent="1">
          <mxGeometry x="350" y="480" width="120" height="30" as="geometry" />
        </mxCell>
        <mxCell id="sEB5FwpAec_Wfmmrv-Z2-38" style="edgeStyle=orthogonalEdgeStyle;shape=connector;curved=1;rounded=0;sketch=1;hachureGap=4;jiggle=2;curveFitting=1;orthogonalLoop=1;jettySize=auto;html=1;exitX=1;exitY=0.5;exitDx=0;exitDy=0;entryX=0;entryY=0.75;entryDx=0;entryDy=0;strokeColor=#6c8ebf;align=center;verticalAlign=middle;fontFamily=Architects Daughter;fontSource=https%3A%2F%2Ffonts.googleapis.com%2Fcss%3Ffamily%3DArchitects%2BDaughter;fontSize=11;fontColor=default;labelBackgroundColor=default;endArrow=classic;fillColor=#dae8fc;" edge="1" parent="1" source="sEB5FwpAec_Wfmmrv-Z2-34" target="sEB5FwpAec_Wfmmrv-Z2-13">
          <mxGeometry relative="1" as="geometry" />
        </mxCell>
        <mxCell id="sEB5FwpAec_Wfmmrv-Z2-34" value="Voucher" style="rounded=1;whiteSpace=wrap;html=1;sketch=1;hachureGap=4;jiggle=2;curveFitting=1;fontFamily=手札体-简;fontSize=14;fillColor=#d5e8d4;strokeColor=#82b366;" vertex="1" parent="1">
          <mxGeometry x="350" y="440" width="120" height="30" as="geometry" />
        </mxCell>
        <mxCell id="sEB5FwpAec_Wfmmrv-Z2-36" value="components" style="text;html=1;align=center;verticalAlign=middle;whiteSpace=wrap;rounded=0;fontFamily=手札体-简;fontSize=14;fontColor=default;labelBackgroundColor=default;" vertex="1" parent="1">
          <mxGeometry x="340" y="360" width="60" height="30" as="geometry" />
        </mxCell>
        <mxCell id="sEB5FwpAec_Wfmmrv-Z2-46" value="enterType = main page" style="text;html=1;align=center;verticalAlign=middle;whiteSpace=wrap;rounded=0;fontFamily=手札体-简;fontSize=14;fontColor=#9c9c9c;labelBackgroundColor=default;" vertex="1" parent="1">
          <mxGeometry x="120" y="260" width="160" height="30" as="geometry" />
        </mxCell>
        <mxCell id="sEB5FwpAec_Wfmmrv-Z2-47" value="enterType = reminder" style="text;html=1;align=center;verticalAlign=middle;whiteSpace=wrap;rounded=0;fontFamily=手札体-简;fontSize=14;fontColor=#9c9c9c;labelBackgroundColor=default;" vertex="1" parent="1">
          <mxGeometry x="100" y="380" width="160" height="30" as="geometry" />
        </mxCell>
      </root>
    </mxGraphModel>
  </diagram>
  <diagram id="Gx0PBL7qfGSmgcqi8eWl" name="第 2 页">
    <mxGraphModel dx="1633" dy="877" grid="1" gridSize="10" guides="1" tooltips="1" connect="1" arrows="1" fold="1" page="1" pageScale="1" pageWidth="827" pageHeight="1169" math="0" shadow="0">
      <root>
        <mxCell id="0" />
        <mxCell id="1" parent="0" />
        <mxCell id="eZN3rfs6bmmg2jXLvzz0-3" value="" style="edgeStyle=orthogonalEdgeStyle;shape=connector;curved=1;rounded=0;sketch=1;hachureGap=4;jiggle=2;curveFitting=1;orthogonalLoop=1;jettySize=auto;html=1;strokeColor=default;align=center;verticalAlign=middle;fontFamily=手札体-简;fontSize=14;fontColor=default;labelBackgroundColor=default;endArrow=classic;" edge="1" parent="1" source="eZN3rfs6bmmg2jXLvzz0-1" target="eZN3rfs6bmmg2jXLvzz0-2">
          <mxGeometry relative="1" as="geometry" />
        </mxCell>
        <mxCell id="eZN3rfs6bmmg2jXLvzz0-5" style="edgeStyle=orthogonalEdgeStyle;shape=connector;curved=1;rounded=0;sketch=1;hachureGap=4;jiggle=2;curveFitting=1;orthogonalLoop=1;jettySize=auto;html=1;exitX=1;exitY=0.5;exitDx=0;exitDy=0;entryX=0;entryY=0.5;entryDx=0;entryDy=0;strokeColor=default;align=center;verticalAlign=middle;fontFamily=Architects Daughter;fontSource=https%3A%2F%2Ffonts.googleapis.com%2Fcss%3Ffamily%3DArchitects%2BDaughter;fontSize=11;fontColor=default;labelBackgroundColor=default;endArrow=classic;" edge="1" parent="1" source="eZN3rfs6bmmg2jXLvzz0-1" target="eZN3rfs6bmmg2jXLvzz0-4">
          <mxGeometry relative="1" as="geometry" />
        </mxCell>
        <mxCell id="eZN3rfs6bmmg2jXLvzz0-1" value="MyBills H5" style="rounded=1;whiteSpace=wrap;html=1;sketch=1;hachureGap=4;jiggle=2;curveFitting=1;fontFamily=手札体-简;fontSize=14;fontColor=default;labelBackgroundColor=default;" vertex="1" parent="1">
          <mxGeometry x="90" y="170" width="120" height="60" as="geometry" />
        </mxCell>
        <mxCell id="eZN3rfs6bmmg2jXLvzz0-7" value="" style="edgeStyle=orthogonalEdgeStyle;shape=connector;curved=1;rounded=0;sketch=1;hachureGap=4;jiggle=2;curveFitting=1;orthogonalLoop=1;jettySize=auto;html=1;strokeColor=default;align=center;verticalAlign=middle;fontFamily=Architects Daughter;fontSource=https%3A%2F%2Ffonts.googleapis.com%2Fcss%3Ffamily%3DArchitects%2BDaughter;fontSize=11;fontColor=default;labelBackgroundColor=default;endArrow=classic;" edge="1" parent="1" source="eZN3rfs6bmmg2jXLvzz0-2" target="eZN3rfs6bmmg2jXLvzz0-6">
          <mxGeometry relative="1" as="geometry" />
        </mxCell>
        <mxCell id="eZN3rfs6bmmg2jXLvzz0-2" value="Select Carrier" style="rounded=1;whiteSpace=wrap;html=1;sketch=1;hachureGap=4;jiggle=2;curveFitting=1;fontFamily=手札体-简;fontSize=14;fontColor=default;labelBackgroundColor=default;" vertex="1" parent="1">
          <mxGeometry x="290" y="170" width="120" height="60" as="geometry" />
        </mxCell>
        <mxCell id="eZN3rfs6bmmg2jXLvzz0-8" style="edgeStyle=orthogonalEdgeStyle;shape=connector;curved=1;rounded=0;sketch=1;hachureGap=4;jiggle=2;curveFitting=1;orthogonalLoop=1;jettySize=auto;html=1;exitX=0.5;exitY=1;exitDx=0;exitDy=0;entryX=0.5;entryY=1;entryDx=0;entryDy=0;strokeColor=default;align=center;verticalAlign=middle;fontFamily=Architects Daughter;fontSource=https%3A%2F%2Ffonts.googleapis.com%2Fcss%3Ffamily%3DArchitects%2BDaughter;fontSize=11;fontColor=default;labelBackgroundColor=default;endArrow=classic;" edge="1" parent="1" source="eZN3rfs6bmmg2jXLvzz0-4" target="eZN3rfs6bmmg2jXLvzz0-1">
          <mxGeometry relative="1" as="geometry" />
        </mxCell>
        <mxCell id="eZN3rfs6bmmg2jXLvzz0-4" value="PDP" style="rounded=1;whiteSpace=wrap;html=1;sketch=1;hachureGap=4;jiggle=2;curveFitting=1;fontFamily=手札体-简;fontSize=14;fontColor=default;labelBackgroundColor=default;" vertex="1" parent="1">
          <mxGeometry x="290" y="260" width="120" height="60" as="geometry" />
        </mxCell>
        <mxCell id="eZN3rfs6bmmg2jXLvzz0-10" style="edgeStyle=orthogonalEdgeStyle;shape=connector;curved=1;rounded=0;sketch=1;hachureGap=4;jiggle=2;curveFitting=1;orthogonalLoop=1;jettySize=auto;html=1;exitX=0.5;exitY=1;exitDx=0;exitDy=0;entryX=0.5;entryY=1;entryDx=0;entryDy=0;strokeColor=default;align=center;verticalAlign=middle;fontFamily=Architects Daughter;fontSource=https%3A%2F%2Ffonts.googleapis.com%2Fcss%3Ffamily%3DArchitects%2BDaughter;fontSize=11;fontColor=default;labelBackgroundColor=default;endArrow=classic;" edge="1" parent="1" source="eZN3rfs6bmmg2jXLvzz0-6" target="eZN3rfs6bmmg2jXLvzz0-1">
          <mxGeometry relative="1" as="geometry">
            <Array as="points">
              <mxPoint x="550" y="470" />
              <mxPoint x="150" y="470" />
            </Array>
          </mxGeometry>
        </mxCell>
        <mxCell id="eZN3rfs6bmmg2jXLvzz0-6" value="PDP" style="rounded=1;whiteSpace=wrap;html=1;sketch=1;hachureGap=4;jiggle=2;curveFitting=1;fontFamily=手札体-简;fontSize=14;fontColor=default;labelBackgroundColor=default;" vertex="1" parent="1">
          <mxGeometry x="490" y="170" width="120" height="60" as="geometry" />
        </mxCell>
      </root>
    </mxGraphModel>
  </diagram>
</mxfile>
